name C:\Users\u0101727\Documents\MyRepositories\upper-imu-dc\Results\main_tracking\Case_47\FLX03_linearAccelerations_bodyFrame.mot
datacolumns 4
datarows 82
range 3.76000000 4.57000000
endheader 
time	radius_imu_x	radius_imu_y	radius_imu_z	
          3.76000000	          1.35210680	         -9.21890081	          2.88560085	
          3.77000000	          1.22868458	         -9.20906738	          2.87678840	
          3.78000000	          1.10557603	         -9.19976377	          2.86691343	
          3.79000000	          0.98308594	         -9.19137107	          2.85757349	
          3.80000000	          0.86149318	         -9.18413107	          2.85009532	
          3.81000000	          0.74117473	         -9.17813704	          2.84546556	
          3.82000000	          0.62267838	         -9.17337658	          2.84432939	
          3.83000000	          0.50673024	         -9.16979868	          2.84703942	
          3.84000000	          0.39418631	         -9.16736183	          2.85371926	
          3.85000000	          0.28594813	         -9.16603451	          2.86430335	
          3.86000000	          0.18285514	         -9.16575800	          2.87853082	
          3.87000000	          0.08556760	         -9.16640250	          2.89590000	
          3.88000000	         -0.00552365	         -9.16774407	          2.91562066	
          3.89000000	         -0.09031601	         -9.16947646	          2.93662055	
          3.90000000	         -0.16892710	         -9.17125433	          2.95764377	
          3.91000000	         -0.24156841	         -9.17275421	          2.97742586	
          3.92000000	         -0.30842027	         -9.17371535	          2.99489348	
          3.93000000	         -0.36955718	         -9.17395994	          3.00931789	
          3.94000000	         -0.42495603	         -9.17349390	          3.02036018	
          3.95000000	         -0.47449423	         -9.17227821	          3.02804404	
          3.96000000	         -0.51796132	         -9.17048479	          3.03261809	
          3.97000000	         -0.55492302	         -9.16809292	          3.03452987	
          3.98000000	         -0.58468688	         -9.16523597	          3.03436380	
          3.99000000	         -0.60621347	         -9.16188901	          3.03292836	
          4.00000000	         -0.61818461	         -9.15813101	          3.03125892	
          4.01000000	         -0.61915321	         -9.15401195	          3.03058237	
          4.02000000	         -0.60782095	         -9.14954313	          3.03217794	
          4.03000000	         -0.58334952	         -9.14465026	          3.03718102	
          4.04000000	         -0.54561324	         -9.13910535	          3.04638463	
          4.05000000	         -0.49532723	         -9.13251718	          3.06008484	
          4.06000000	         -0.43403874	         -9.12438810	          3.07801155	
          4.07000000	         -0.36401761	         -9.11420704	          3.09936354	
          4.08000000	         -0.28810274	         -9.10154237	          3.12294367	
          4.09000000	         -0.20954856	         -9.08608919	          3.14737287	
          4.10000000	         -0.13188231	         -9.06767068	          3.17133491	
          4.11000000	         -0.05875386	         -9.04620165	          3.19379821	
          4.12000000	          0.00623606	         -9.02164745	          3.21417295	
          4.13000000	          0.05971478	         -8.99401360	          3.23238016	
          4.14000000	          0.09868646	         -8.96336081	          3.24882616	
          4.15000000	          0.12062513	         -8.92981709	          3.26429176	
          4.16000000	          0.12352112	         -8.89357999	          3.27976632	
          4.17000000	          0.10592219	         -8.85492916	          3.29627124	
          4.18000000	          0.06699672	         -8.81424920	          3.31471853	
          4.19000000	          0.00660891	         -8.77204875	          3.33582795	
          4.20000000	         -0.07462581	         -8.72896047	          3.36009859	
          4.21000000	         -0.17534664	         -8.68571878	          3.38781289	
          4.22000000	         -0.29354253	         -8.64311104	          3.41904554	
          4.23000000	         -0.42673856	         -8.60190595	          3.45365929	
          4.24000000	         -0.57223034	         -8.56277372	          3.49129539	
          4.25000000	         -0.72728632	         -8.52623719	          3.53138207	
          4.26000000	         -0.88925945	         -8.49266727	          3.57317193	
          4.27000000	         -1.05562541	         -8.46231508	          3.61578403	
          4.28000000	         -1.22401497	         -8.43532407	          3.65822381	
          4.29000000	         -1.39228387	         -8.41170855	          3.69938511	
          4.30000000	         -1.55858637	         -8.39131343	          3.73807691	
          4.31000000	         -1.72137555	         -8.37380714	          3.77311065	
          4.32000000	         -1.87929616	         -8.35872613	          3.80344399	
          4.33000000	         -2.03101590	         -8.34549535	          3.82834577	
          4.34000000	         -2.17509032	         -8.33347945	          3.84752317	
          4.35000000	         -2.30992656	         -8.32196363	          3.86119320	
          4.36000000	         -2.43384749	         -8.31020285	          3.87003686	
          4.37000000	         -2.54520757	         -8.29740820	          3.87514424	
          4.38000000	         -2.64252851	         -8.28281962	          3.87780725	
          4.39000000	         -2.72464780	         -8.26569575	          3.87936746	
          4.40000000	         -2.79088293	         -8.24538663	          3.88105608	
          4.41000000	         -2.84122280	         -8.22133528	          3.88389825	
          4.42000000	         -2.87648858	         -8.19313258	          3.88866403	
          4.43000000	         -2.89840156	         -8.16051736	          3.89587012	
          4.44000000	         -2.90951523	         -8.12337523	          3.90581591	
          4.45000000	         -2.91300502	         -8.08172987	          3.91864866	
          4.46000000	         -2.91237175	         -8.03572859	          3.93444538	
          4.47000000	         -2.91111164	         -7.98563813	          3.95327556	
          4.48000000	         -2.91239732	         -7.93183210	          3.97521296	
          4.49000000	         -2.91880094	         -7.87477350	          4.00029445	
          4.50000000	         -2.93209550	         -7.81499821	          4.02846241	
          4.51000000	         -2.95317916	         -7.75308846	          4.05952923	
          4.52000000	         -2.98215901	         -7.68962108	          4.09318418	
          4.53000000	         -3.01857431	         -7.62509973	          4.12902907	
          4.54000000	         -3.06167190	         -7.55990750	          4.16661224	
          4.55000000	         -3.11063179	         -7.49429638	          4.20544361	
          4.56000000	         -3.16468151	         -7.42840351	          4.24499334	
          4.57000000	         -3.22311336	         -7.36227773	          4.28469727	
